<!DOCTYPE svg PUBLIC "-//W3C//DTD SVG 1.1//EN" "http://www.w3.org/Graphics/SVG/1.1/DTD/svg11.dtd">
<!-- Uploaded to: SVG Repo, www.svgrepo.com, Transformed by: SVG Repo Mixer Tools -->
<svg fill="#ffffff" width="800px" height="800px" viewBox="0 0 24 24" xmlns="http://www.w3.org/2000/svg" stroke="#ffffff">
<g id="SVGRepo_bgCarrier" stroke-width="0"/>
<g id="SVGRepo_tracerCarrier" stroke-linecap="round" stroke-linejoin="round"/>
<g id="SVGRepo_iconCarrier">
<path d="M21,9H18V6a1.116,1.116,0,0,0-.292-.7v0l-3-3h0A1.127,1.127,0,0,0,14,2H7A1,1,0,0,0,6,3V9H3a1,1,0,0,0-1,1v8a1,1,0,0,0,1,1H6v2a1,1,0,0,0,1,1H17a1,1,0,0,0,1-1V19h3a1,1,0,0,0,1-1V10A1,1,0,0,0,21,9ZM16,20H8V17h8ZM16,9H8V4h5V6a1,1,0,0,0,1,1h2Z"/>
</g>
</svg>